<svg xmlns="http://www.w3.org/2000/svg" version="1.1" x="0" y="0" viewBox="0 0 436.7 436.7" xml:space="preserve"><path d="M436.7 382.5l-1.5-15.9c-0.5-5.8-4.1-10.5-9-12.9 1-61 0.7-198.7-19.9-287.3 -0.2-0.8-0.5-1.6-0.9-2.3 2.7-2.9 4.3-6.7 4.3-10.9v-16c0-8.8-7.2-16-16-16h-352c-8.8 0-16 7.2-16 16v16c0 4.2 1.6 8 4.3 10.9 -0.4 0.7-0.7 1.5-0.9 2.3C8.5 154.9 8.7 292.6 10 353.1c-4.6 2.4-8 7.1-8.5 12.7L0.1 381.7c-0.8 8.8 5.7 16.6 14.5 17.4l175.2 16.3c0.5 0 1 0.1 1.5 0.1 8.2 0 15.2-6.2 15.9-14.5l1.5-15.9c0.7-7.4-3.8-14.1-10.5-16.5l11.2-116.8c1-3.8 4.4-6.5 8.4-6.5 3.9 0 7.4 2.7 8.4 6.5l11.6 122.6c-2.1 3-3.3 6.8-2.9 10.7l1.5 15.9c0.8 8.3 7.8 14.5 15.9 14.5 0.5 0 1 0 1.5-0.1l168.6-15.5C431 399.1 437.5 391.3 436.7 382.5zM252.2 399.5l-1.5-15.8c0.1-0.1 0.2-0.1 0.3-0.2l121.6-11.3c4.4-0.4 7.6-4.3 7.2-8.7s-4.3-7.6-8.7-7.2l-118 11 -11.1-117.6c0 0 0 0 0-0.1 0-0.1 0-0.3-0.1-0.4 0-0.1 0-0.3-0.1-0.4 0 0 0 0 0-0.1 0-0.1-0.1-0.3-0.1-0.4 0-0.1 0-0.2-0.1-0.3 -2.7-10.9-12.6-18.7-23.9-18.7 -11.3 0-21.2 7.8-23.9 18.7 0 0.1-0.1 0.2-0.1 0.3 0 0.1-0.1 0.2-0.1 0.4 0 0 0 0 0 0.1 0 0.1 0 0.3-0.1 0.4 0 0.1 0 0.3-0.1 0.4 0 0 0 0 0 0.1l-11.2 116.9 -4-0.4c-4.4-0.4-8.3 2.8-8.7 7.2 -0.4 4.4 2.8 8.3 7.2 8.7l15.9 1.5 -1.5 15.9L16 383.2l1.5-15.9 127.5 11.8c4.4 0.4 8.3-2.8 8.7-7.2 0.4-4.4-2.8-8.3-7.2-8.7L26 352c-1.2-60.3-1.4-195.6 18.7-281.9 0.1-0.3 0.1-0.5 0.1-0.8h276.9c4.4 0 8-3.6 8-8s-3.6-8-8-8h-280v-16h352v16h-40c-4.4 0-8 3.6-8 8s3.6 8 8 8h36.9c0 0.3 0.1 0.5 0.1 0.8 20.1 86.5 20.5 222 19.5 282.7l-7.2 0.6c-4.4 0.3-7.7 4.2-7.4 8.6s4.2 7.7 8.6 7.4l14.8-1.2c0 0 0.1 0 0.1 0l1.5 15.9L252.2 399.5zM114.7 97.3c-4.3-0.9-8.6 1.8-9.5 6.1 -8.8 41.2-37.8 90.3-55.5 112 -2.8 3.4-2.3 8.5 1.1 11.3 1.5 1.2 3.3 1.8 5.1 1.8 2.3 0 4.6-1 6.2-2.9 17.4-21.4 48.8-72.5 58.7-118.8C121.8 102.5 119 98.2 114.7 97.3zM330.2 103.4c-0.9-4.3-5.2-7.1-9.5-6.1 -4.3 0.9-7.1 5.2-6.1 9.5 9.9 46.2 41.3 97.4 58.7 118.8 1.6 1.9 3.9 2.9 6.2 2.9 1.8 0 3.6-0.6 5.1-1.8 3.4-2.8 3.9-7.8 1.1-11.3C367.9 193.7 339 144.6 330.2 103.4z"/></svg>